<?xml version="1.0" encoding="UTF-8" standalone="no"?>
<!-- Created with Inkscape (http://www.inkscape.org/) -->

<svg
   width="128"
   height="128"
   viewBox="0 0 33.866667 33.866668"
   version="1.1"
   id="svg5"
   xmlns="http://www.w3.org/2000/svg"
   xmlns:svg="http://www.w3.org/2000/svg">
  <defs
     id="defs2" />
  <g
     id="layer1"
     transform="translate(-117.44285,-151.41048)">
    <path
       style="fill:#ffffff;stroke-width:0.352778"
       d="m 134.56115,181.42266 c -1.58388,-0.016 -3.00394,-1.16305 -3.05028,-2.73608 -0.0381,-1.29213 -1.80257,-1.28679 -4.01958,-1.31539 -3.09366,-0.0399 -4.06129,-0.11624 -4.40399,-0.52917 -0.35038,-0.42217 -0.35038,-0.63616 0,-1.05833 0.37295,-0.44938 2.07506,-0.52917 11.28889,-0.52917 9.21382,0 10.91594,0.0798 11.28889,0.52917 0.35037,0.42217 0.35037,0.63616 0,1.05833 -0.34212,0.41223 -1.30665,0.5294 -4.36472,0.53021 -1.60192,-0.0465 -3.81696,-0.12888 -3.80541,1.31752 0.0182,1.74171 -1.34992,2.74886 -2.9338,2.73291 z m -9.19604,-9.07855 c 0.13389,-0.43657 0.3652,-2.61938 0.51402,-4.8507 0.20231,-3.0334 0.45754,-4.42138 1.01164,-5.50145 0.84746,-1.65189 2.61076,-3.31953 4.21068,-3.98224 0.66266,-0.27448 1.18249,-0.79614 1.3135,-1.31811 0.47748,-1.90244 3.445,-1.90244 3.92248,0 0.13101,0.52197 0.65083,1.04363 1.31349,1.31811 1.59992,0.66271 3.36323,2.33035 4.21068,3.98224 0.55411,1.08007 0.80934,2.46805 1.01165,5.50145 0.14882,2.23132 0.38012,4.41413 0.51401,4.8507 l 0.24344,0.79375 h -9.25451 -9.25452 z"
       id="path892" />
  </g>
</svg>
