<?xml version="1.0" encoding="UTF-8" standalone="no"?>
<svg
   width="128"
   height="128"
   viewBox="0 0 33.866666 33.866666"
   version="1.1"
   id="svg5"
   xmlns="http://www.w3.org/2000/svg"
   xmlns:svg="http://www.w3.org/2000/svg">
  <defs
     id="defs2" />
  <g
     id="layer1"
     transform="translate(-71.924384,-121.8091)">
    <path
       style="fill:#ffffff;stroke-width:0.352778"
       d="m 86.385988,151.62242 c -2.749228,-0.90205 -4.801774,-2.76755 -6.065062,-5.51237 -1.147005,-2.49216 -1.140967,-7.32995 0.01232,-9.87339 1.545092,-3.4075 1.413698,-3.35577 8.524468,-3.35577 7.110769,0 6.979379,-0.0517 8.524469,3.35577 1.15329,2.54344 1.15933,7.38123 0.0123,9.87339 -0.9819,2.13342 -2.58514,3.86967 -4.46947,4.84028 -1.52062,0.78326 -5.084003,1.14951 -6.539057,0.67209 z m -11.061401,-2.33737 c -0.305852,-0.79704 0.02419,-1.34579 1.220019,-2.02847 1.400473,-0.79952 1.541216,-0.78265 2.007454,0.24063 0.355055,0.77926 0.277463,0.92495 -0.845483,1.5875 -1.466847,0.86546 -2.106125,0.91923 -2.38199,0.20034 z m 24.575096,-0.22778 c -1.01536,-0.62825 -1.08948,-0.78494 -0.73712,-1.55827 0.4671,-1.02518 0.60748,-1.04212 2.008267,-0.24242 1.19582,0.68268 1.52587,1.23143 1.22001,2.02847 -0.26943,0.70214 -1.11292,0.62501 -2.491157,-0.22778 z m -26.564189,-7.18056 c -0.748404,-0.90177 0.18456,-1.5875 2.159862,-1.5875 1.676696,0 1.720693,0.0271 1.720693,1.05834 0,1.03127 -0.044,1.05833 -1.720693,1.05833 -1.099133,0 -1.879332,-0.19115 -2.159862,-0.52917 z m 27.163886,-0.52916 c 0,-1.03127 0.044,-1.05834 1.72069,-1.05834 1.97531,0 2.90827,0.68573 2.15987,1.5875 -0.28053,0.33802 -1.06073,0.52917 -2.15987,0.52917 -1.67669,0 -1.72069,-0.0271 -1.72069,-1.05833 z m -24.073006,-5.94083 c -1.08828,-0.65861 -1.399101,-1.22188 -1.101787,-1.99667 0.26584,-0.69277 0.986041,-0.66964 2.168457,0.0696 0.52675,0.32933 1.005141,0.6281 1.063091,0.66393 0.05795,0.0358 0.0011,0.48075 -0.126438,0.98871 -0.263907,1.05149 -0.635253,1.10235 -2.003323,0.27441 z m 22.876029,0.0911 c -0.38577,-1.00531 -0.22452,-1.3738 0.875017,-1.99961 1.32922,-0.75654 1.9475,-0.78117 2.21342,-0.0882 0.30586,0.79703 -0.0242,1.34577 -1.22001,2.02846 -1.331257,0.76 -1.596327,0.76842 -1.868427,0.0593 z m -15.030798,-5.01986 c 0,-0.15744 0.307525,-0.61634 0.683388,-1.01979 0.403309,-0.4329 0.728619,-1.3638 0.79375,-2.27138 0.09873,-1.37576 0.20332,-1.53785 0.992306,-1.53785 0.699875,0 0.904989,0.20028 0.993571,0.97014 0.09283,0.8068 0.281922,0.97014 1.123096,0.97014 0.841174,0 1.030265,-0.16334 1.123095,-0.97014 0.0886,-0.76986 0.293702,-0.97014 0.993572,-0.97014 0.78899,0 0.89358,0.16209 0.99231,1.53785 0.0651,0.90758 0.39044,1.83848 0.79375,2.27138 0.37586,0.40345 0.68339,0.86235 0.68339,1.01979 0,0.15744 -2.06375,0.28626 -4.586117,0.28626 -2.522361,0 -4.586111,-0.12882 -4.586111,-0.28626 z"
       id="path1248" />
  </g>
</svg>
