<?xml version="1.0" encoding="UTF-8" standalone="no"?>
<svg
   width="130"
   height="130"
   viewBox="0 0 34.395834 34.395835"
   version="1.1"
   id="svg5"
   sodipodi:docname="copy.svg"
   inkscape:version="1.1.2 (0a00cf5339, 2022-02-04)"
   xmlns:inkscape="http://www.inkscape.org/namespaces/inkscape"
   xmlns:sodipodi="http://sodipodi.sourceforge.net/DTD/sodipodi-0.dtd"
   xmlns="http://www.w3.org/2000/svg"
   xmlns:svg="http://www.w3.org/2000/svg">
  <sodipodi:namedview
     id="namedview6"
     pagecolor="#ffffff"
     bordercolor="#666666"
     borderopacity="1.0"
     inkscape:pageshadow="2"
     inkscape:pageopacity="0.0"
     inkscape:pagecheckerboard="0"
     showgrid="false"
     lock-margins="true"
     fit-margin-top="15"
     fit-margin-left="15"
     fit-margin-right="15"
     fit-margin-bottom="15"
     inkscape:zoom="8.73"
     inkscape:cx="58.991982"
     inkscape:cy="65.063001"
     inkscape:window-width="3440"
     inkscape:window-height="1363"
     inkscape:window-x="0"
     inkscape:window-y="0"
     inkscape:window-maximized="1"
     inkscape:current-layer="svg5" />
  <defs
     id="defs2" />
  <g
     id="layer1"
     transform="translate(-137.08319,-139.29264)">
    <path
       style="fill:#ffffff;stroke-width:0.352778"
       d="m 143.345,169.02299 c -0.66937,-0.66937 -0.70556,-1.17592 -0.70556,-9.87777 0,-8.70186 0.0362,-9.20841 0.70556,-9.87778 0.38805,-0.38806 1.09384,-0.70556 1.5684,-0.70556 h 0.86285 l 0.10729,7.75506 0.10729,7.75506 c 0,0 -0.0344,1.2021 0.49237,1.74041 0.52681,0.53832 1.81244,0.56475 1.81244,0.56475 l 6.16774,0.11093 6.16773,0.11094 v 0.8592 c 0,0.47257 -0.3175,1.17671 -0.70556,1.56476 -0.6618,0.6618 -1.17592,0.70556 -8.29027,0.70556 -7.11436,0 -7.62848,-0.0438 -8.29028,-0.70556 z m 5.29167,-5.29166 c -0.66938,-0.66938 -0.70556,-1.17593 -0.70556,-9.87778 0,-11.50668 -0.56231,-10.58333 6.44516,-10.58333 h 5.03405 l 3.25623,3.26982 3.25623,3.26982 v 6.60796 c 0,6.13758 -0.0502,6.65818 -0.70556,7.31351 -0.6618,0.6618 -1.17592,0.70555 -8.29028,0.70555 -7.11435,0 -7.62847,-0.0437 -8.29027,-0.70555 z m 12.69117,-15.7101 -2.63701,-2.65732 -0.10635,2.17919 c -0.15249,3.12454 -0.14268,3.13545 2.82048,3.13545 h 2.55988 z"
       id="path2078" />
  </g>
</svg>
